<?xml version="1.0"?><svg width="640" height="480" xmlns="http://www.w3.org/2000/svg">
 <g>
  <title>Layer 1</title>
  <g>
   <radialGradient gradientTransform="translate(-26, -11) matrix(0.756507, 0, 0, 0.583188, 147.194, -80.7604)" gradientUnits="userSpaceOnUse" r="289.7725" cy="394.3887" cx="303.8091" id="SVGID_1_">
    <stop stop-color="#FFF2DB" offset="0.004"/>
    <stop stop-color="#EEC680" offset="0.5215"/>
    <stop stop-color="#E4AE4D" offset="0.7975"/>
    <stop stop-color="#E2AC4C" offset="0.8704"/>
    <stop stop-color="#DDA448" offset="0.9076"/>
    <stop stop-color="#D49742" offset="0.9367"/>
    <stop stop-color="#C88439" offset="0.9616"/>
    <stop stop-color="#B86C2D" offset="0.9836"/>
    <stop stop-color="#A85422" offset="1"/>
   </radialGradient>
   <path d="m268.039886,18.604795c73.743805,-5.395317 122.902618,-8.992956 153.629944,3.596872c30.727417,12.589821 91.774261,56.210533 102.421234,73.739754c16.389099,26.977325 32.911377,38.882919 51.211365,97.120209c16.387451,52.155472 6.14325,89.922623 6.14325,100.714798s-36.528748,70.42395 -61.451233,93.524841c-36.870667,34.171051 -92.662354,56.139526 -137.2435,62.947601c-47.113037,7.193787 -138.229736,-0.610168 -157.727478,-7.193726c-79.887054,-26.978882 -104.468628,-71.942108 -118.807724,-97.120941c-14.339096,-25.178192 -32.552177,-106.340775 -28.677322,-131.291321c6.144951,-39.567154 28.678192,-84.530396 57.355515,-118.702217c28.677353,-34.171829 71.694656,-48.560104 79.887924,-55.75462c8.193268,-7.193756 53.258026,-21.581251 53.258026,-21.581251z" fill="url(#SVGID_1_)"/>
   <path d="m202.496307,86.738464c-16.893646,9.332779 -21.050293,20.356331 -34.451782,33.563217c-13.914642,13.712402 -24.97905,15.85907 -31.57019,34.455139c-11.015701,31.089661 -12.039413,65.744141 -15.882095,100.346695c-1.981354,17.834717 -6.151901,34.036652 1.850021,49.947662c7.532242,14.974823 21.281647,26.089966 28.049362,41.25412c10.893921,24.413696 24.449356,33.013367 50.005051,37.594635c24.032745,4.303986 22.942047,21.624725 48.052429,25.018524c26.949097,3.641144 52.358673,16.466919 79.865326,16.23938c10.008453,-0.081696 21.973938,-0.98819 32.244232,-1.876373c14.362579,-1.241669 14.069458,-4.135254 25.805359,-8.944061c17.438934,-7.145599 37.816925,-7.108185 56.457031,-13.972046c11.888092,-4.376587 11.968109,-3.660248 21.720947,-11.048767c7.128632,-5.399902 13.349274,-12.634888 18.71402,-19.385681c10.595642,-13.339722 24.351929,-26.952881 38.183044,-40.585144c17.256409,-17.005341 18.516663,-24.60614 14.446167,-48.918243c-5.852783,-34.969879 17.01886,-67.418869 1.095947,-100.651428c-3.685303,-7.690872 -9.789368,-12.007156 -13.090088,-19.649933c-3.191223,-7.384674 -1.512634,-17.815613 -5.363037,-24.707718c-8.265625,-14.789932 -29.31665,-22.424324 -39.748749,-35.709068c-10.949585,-13.947647 -15.16452,-19.123024 -32.514801,-28.539818c-16.064697,-8.718781 -30.367279,-11.031929 -49.846771,-16.210358c-18.668823,-4.96384 -37.07843,-6.520203 -56.005646,-10.692871c-25.419128,-5.604568 -30.877838,0.182514 -53.465027,6.662991c-8.808197,2.526974 -17.852081,-0.161892 -26.544647,1.803783c-9.998901,2.259697 -12.672607,6.612595 -21.507751,11.170937c-6.724243,3.468575 -19.247269,3.996269 -24.639847,7.986435c-7.175659,5.308243 -1.983093,13.411545 -13.859009,16.636497" stroke-linejoin="round" stroke-linecap="round" stroke-width="6.4697" stroke="#A62431" fill="#BE1E2D"/>
   <path d="m179.106339,143.210175c-4.932495,7.62674 -14.015549,13.435944 -17.585114,21.294113c-4.066193,8.951675 0.634933,19.659836 -3.310364,27.929596c-2.855469,5.982574 -14.574814,9.933029 -17.399826,18.157745c-1.861313,5.412857 -1.05069,18.978668 0.199188,24.598495c2.531021,11.369476 10.743439,16.29129 14.178192,28.45578c2.311844,8.184235 -1.544724,18.104279 -0.141785,26.525269c1.733459,10.402679 9.117844,17.248932 12.573456,26.47406c2.952026,7.884064 1.332489,16.649506 3.816574,24.61377c20.084824,4.840088 20.886765,17.977509 33.742889,26.814667c2.529312,1.738861 9.718872,-1.761047 12.126404,-0.210022c3.182495,2.045868 4.44017,6.722534 7.509644,9.422882c8.005417,7.040222 0.428802,10.118622 16.000351,14.246277c18.661865,4.948547 35.281525,-9.581024 52.727509,-4.453766c10.200684,2.995911 39.094574,34.842377 36.242584,2.516296c11.166168,-0.791138 27.516174,-1.988617 37.894348,1.321899c11.16095,3.556366 10.338989,11.228973 25.41391,8.590515c7.706238,-1.349426 14.674866,-7.85434 22.007935,-10.57373c6.758118,-2.507904 25.900116,-3.000488 30.710846,-6.605774c10.007599,-7.504517 0.238312,-7.941345 3.867889,-17.881226c3.511261,-9.621521 8.142822,-10.00177 16.14386,-16.285248c3.329529,-2.613251 11.671539,-3.135651 13.675476,-5.622131c2.959839,-3.680084 0.304443,-8.588959 2.364014,-11.636749c4.948242,-7.317505 9.047424,-11.315247 16.090881,-19.136749c13.31012,-14.77771 -3.663513,-24.222015 4.367126,-41.118164c3.191162,-6.717987 14.429504,-9.996429 15.718506,-15.841553c1.516907,-6.871429 -7.13208,-15.808655 -8.597717,-22.716034c-3.426025,-16.151581 6.356384,-31.14006 4.454163,-48.157639c-1.691711,-15.154984 -7.27301,-27.909027 -18.05304,-37.134109c-16.042969,-13.726151 -20.41098,-16.305069 -27.574463,-36.25666c-6.904297,-19.227638 -9.753662,-29.073601 -36.186066,-27.719612c-11.587158,0.593376 -10.937439,5.60379 -23.847473,-1.678528c-9.662354,-5.451073 -12.051605,-10.860893 -22.664642,-14.067535c-6.864227,-2.07412 -19.949127,-2.440689 -26.348022,-3.598396c-16.993652,-3.075302 -15.141907,-4.252113 -27.734528,3.648804c-12.758698,8.005531 -5.128204,14.939629 -26.317627,12.422569c-9.646667,-1.145493 -15.171448,-7.979561 -25.459167,-6.41481c-2.720642,0.414673 -13.322327,8.543922 -18.391357,9.871933c-11.915039,3.119598 -14.607849,-0.410828 -23.525696,7.383911c-7.71051,6.739357 -5.556091,16.825134 -10.512924,22.764175c-8.431595,10.099503 -7.387878,6.16127 -22.154892,8.805847c-19.750854,3.535797 -22.013992,8.755463 -28.024139,24.788651" stroke-linejoin="round" stroke-linecap="round" stroke-width="8.6263" stroke="#FDBD67" fill="#FED29A"/>
   <path d="m293.965271,305.151245c-6.758148,11.054871 -17.325073,20.337219 -32.940125,19.172668c-1.280273,1.289795 -2.122253,2.767517 -2.525848,4.436096c25.376556,-3.979462 32.116455,11.721527 47.185272,24.245728c-27.387451,-34.296295 22.629822,-27.678375 35.914734,-43.300751c-25.545258,1.83667 -31.906799,-36.319275 -59.062897,-18.863373c10.540802,5.268585 7.648773,10.107178 11.428864,16.984741" fill="#FDBD67"/>
   <path d="m393.906677,327.743622c-4.806366,12.413391 -33.862061,26.945221 -50.849609,24.063141c31.15097,-0.749146 37.474213,5.729797 57.158081,22.462524c-3.890503,-13.20459 2.892883,-22.988708 18.581848,-22.451874c-8.645538,0.213074 -23.71701,-8.072693 -24.89032,-21.400299" fill="#FDBD67"/>
   <path d="m362.681793,123.528915c3.059875,15.603271 -12.82135,20.490738 -27.322235,19.906525c16.343048,2.407837 25.882751,12.634888 21.230316,30.086197c-1.195038,-4.575867 0.34967,-10.288116 0.530548,-14.768539c4.910797,-3.264694 11.174011,-8.007797 15.215881,-10.683716c-0.418396,-0.178711 8.315002,-0.133636 8.106293,-0.07254c6.362366,4.13678 6.275391,4.245987 14.81488,7.61908c-3.507843,0.05423 -7.470551,0.705643 -10.800049,-0.403183c-3.512115,-11.985001 0.038269,-24.183075 11.574982,-31.402023c-9.536224,9.793274 -26.126251,15.595627 -36.395721,2.394089" fill="#FDBD67"/>
   <path d="m413.239166,243.809647c7.315674,-8.385849 15.796814,-15.819397 20.178741,-26.991058c-14.340851,0.954575 -19.908264,10.78067 -32.450409,13.68338c-12.703033,2.940094 -29.398376,-0.714035 -42.084869,0.937759c-1.740448,10.025421 -3.282562,13.659729 -12.251678,20.115021c19.878662,-24.631317 51.907257,-3.851929 60.671967,15.362701c-1.717773,-10.02771 2.266663,-14.702881 5.936249,-23.107803" fill="#FDBD67"/>
   <path d="m273.961304,154.545273c10.972229,2.139023 21.93222,0.067963 29.844574,-5.072266c0.198303,14.521118 -14.320831,20.914536 -14.303467,36.210815c-7.045135,-6.264374 -12.125519,-8.776825 -16.07254,-17.30394c-11.446259,-1.437988 -22.928101,-1.383011 -32.035522,3.148621c18.778442,-6.100189 19.588165,-20.811493 32.117279,-32.217636c-0.794128,5.83519 3.346863,15.050369 3.493896,17.906464" fill="#FDBD67"/>
   <path d="m211.699371,261.807007c12.184692,-5.305969 17.673828,-14.773926 23.672668,-23.92189c3.993988,16.169876 -8.083694,27.932663 -11.020065,42.048325c4.54892,2.475037 8.622086,6.807312 13.757248,8.721802c-14.443481,-3.768677 -28.996552,-6.859283 -44.596832,-6.052826c9.489243,-0.626984 14.297348,-6.040588 21.594757,-10.100281c-9.358765,-4.025238 -16.390884,-10.580597 -18.163498,-18.460114c5.410004,0.868286 9.938049,3.165436 14.755722,5.0914" fill="#FDBD67"/>
  </g>
 </g>
</svg>